<!-- <svg id="visual" viewBox="0 0 600 900" width="600" height="900" xmlns="http://www.w3.org/2000/svg" xmlns:xlink="http://www.w3.org/1999/xlink" version="1.1"><rect x="0" y="0" width="600" height="900" fill="#001122"></rect><g transform="translate(350.8497123974555 485.53758390787215)"><path d="M103.1 -176.7C133.7 -140.7 158.7 -112.3 159.2 -81.5C159.6 -50.6 135.5 -17.3 119.4 9.2C103.2 35.8 95.1 55.5 84.7 80.9C74.4 106.2 61.8 137 36.6 161C11.5 184.9 -26.4 201.8 -56 192.4C-85.6 183 -107.1 147.1 -140.2 117C-173.4 86.8 -218.4 62.3 -241.8 23.3C-265.3 -15.8 -267.3 -69.4 -246.8 -112.1C-226.4 -154.9 -183.5 -186.8 -138.6 -216.3C-93.7 -245.8 -46.9 -272.9 -5.3 -264.6C36.2 -256.4 72.4 -212.7 103.1 -176.7" fill="#036550"></path></g></svg> -->

<svg xmlns="http://www.w3.org/2000/svg" version="1.1" xmlns:xlink="http://www.w3.org/1999/xlink" xmlns:svgjs="http://svgjs.com/svgjs" width="1440" height="560" preserveAspectRatio="none" viewBox="0 0 1440 560">
    <g mask="url(&quot;#SvgjsMask1008&quot;)" fill="none">
        <rect width="1440" height="560" x="0" y="0" fill="#0e2a47"></rect>
        <path d="M 0,211 C 57.6,181 172.8,59 288,61 C 403.2,63 460.8,223 576,221 C 691.2,219 748.8,42.2 864,51 C 979.2,59.8 1036.8,270.2 1152,265 C 1267.2,259.8 1382.4,73 1440,25L1440 560L0 560z" fill="#184a7e"></path>
        <path d="M 0,543 C 96,501.8 288,345 480,337 C 672,329 768,510.2 960,503 C 1152,495.8 1344,341.4 1440,301L1440 560L0 560z" fill="#2264ab"></path>
    </g>
    <defs>
        <mask id="SvgjsMask1008">
            <rect width="1440" height="560" fill="#ffffff"></rect>
        </mask>
    </defs>
</svg>