<svg xmlns="http://www.w3.org/2000/svg" version="1.1" xmlns:xlink="http://www.w3.org/1999/xlink" xmlns:svgjs="http://svgjs.com/svgjs" width="1440" height="560" preserveAspectRatio="none" viewBox="0 0 1440 560">
    <g mask="url(&quot;#SvgjsMask1008&quot;)" fill="none">
        <rect width="1440" height="560" x="0" y="0" fill="#0e2a47"></rect>
        <path d="M 0,211 C 57.6,181 172.8,59 288,61 C 403.2,63 460.8,223 576,221 C 691.2,219 748.8,42.2 864,51 C 979.2,59.8 1036.8,270.2 1152,265 C 1267.2,259.8 1382.4,73 1440,25L1440 560L0 560z" fill="#184a7e"></path>
        <path d="M 0,543 C 96,501.8 288,345 480,337 C 672,329 768,510.2 960,503 C 1152,495.8 1344,341.4 1440,301L1440 560L0 560z" fill="#2264ab"></path>
    </g>
    <defs>
        <mask id="SvgjsMask1008">
            <rect width="1440" height="560" fill="#ffffff"></rect>
        </mask>
    </defs>
</svg>